<?xml version="1.0" encoding="UTF-8"?>
<svg id="Layer_2" data-name="Layer 2" xmlns="http://www.w3.org/2000/svg" viewBox="0 0 557.01 80.99">
  <g id="Layer_1-2" data-name="Layer 1">
    <g>
      <g>
        <path d="M86.31,11.13h9.71v34.3l14.16-17.31h11.57l-16.02,18.69,17.72,23.05h-12.13l-15.29-20.71v20.71h-9.71V11.13Z"/>
        <path d="M132.26,28.12v-10.35h9.71v10.35h8.25v7.44h-8.25v19.66c0,5.1,1.13,7.52,5.02,7.52.81,0,1.78,0,3.32-.32v7.44c-2.18.57-4.04.73-6.23.73-8.25,0-11.81-3.96-11.81-13.43v-21.6h-6.71v-7.44h6.71Z"/>
        <path d="M158.88,11.13h9.71v9.79h-9.71v-9.79ZM158.88,28.12h9.71v41.74h-9.71V28.12Z"/>
        <path d="M185.41,56.51c0,5.02,3.07,7.52,8.9,7.52,4.61,0,7.6-1.94,7.6-5.18,0-4.13-4.69-5.26-10.03-6.55-7.12-1.7-15.53-3.56-15.53-12.7,0-7.6,6.8-12.62,17.39-12.62s17.31,4.77,17.31,13.91h-9.63c-.16-4.93-2.75-6.96-8.01-6.96-4.29,0-7.04,1.86-7.04,4.85,0,4.53,6.15,5.5,12.38,7.12,6.55,1.7,13.19,4.13,13.19,12.13s-6.88,12.94-17.72,12.94c-11.81,0-18.61-5.02-18.77-14.48h9.95Z"/>
        <path d="M218.25,11.13h9.71v34.3l14.16-17.31h11.57l-16.02,18.69,17.72,23.05h-12.13l-15.29-20.71v20.71h-9.71V11.13Z"/>
        <path d="M260.32,58.45h11v11.41h-11v-11.41Z"/>
        <path d="M0,37.58v32.28h10.27v-23.78h25.48v-8.49H0Z"/>
        <path d="M0,11.13v19.82h10.27v-11.33h27.42v-8.49H0Z"/>
        <path d="M69.25,64.44c-3.48,4.21-7.44,6.23-13.99,6.23-9.22,0-14.48-4.61-14.48-12.38,0-13.35,16.74-13.51,27.34-14.72v-1.78c0-5.1-2.51-7.93-7.6-7.93s-8.17,2.59-8.25,7.04h-9.95c.32-8.74,7.36-13.91,18.2-13.91,13.27,0,17.07,6.96,17.07,18.12v11.65c0,4.61.16,8.66.89,13.11h-8.82c-.24-1.62-.32-3.32-.4-5.42ZM68.11,50.2c-7.28.97-17.31.81-17.31,7.93,0,3.56,2.51,5.82,6.96,5.82,5.99,0,10.35-2.91,10.35-11.97v-1.78Z"/>
      </g>
      <g>
        <path d="M515.65,31.15c-8.55,0-12.99,7.16-12.99,16.18s4.43,16.1,12.99,16.1,12.99-7.08,12.99-16.1-4.43-16.18-12.99-16.18Z"/>
        <path d="M450.71,31.46c-7.7,0-11.59,6.84-11.59,16.02s3.89,15.94,11.59,15.94c8.94,0,12.83-6.77,12.83-15.94s-4.43-16.02-12.83-16.02Z"/>
        <path d="M544.01,0h-244.06c-7.18,0-13,5.82-13,13v54.99c0,7.18,5.82,13,13,13h244.06c7.18,0,13-5.82,13-13V13c0-7.18-5.82-13-13-13ZM332.8,69.33c-16.18,0-24.19-8.87-24.81-19.91h7.85c.93,8.71,6.69,13.53,17.19,13.53,7.7,0,13.3-3.42,13.3-10.42,0-7.54-6.69-9.33-16.8-11.59-10.34-2.18-19.13-5.13-19.13-16.25,0-9.72,8.17-15.48,20.07-15.48,14.23,0,20.61,7.16,22.01,17.03h-7.7c-1.01-7-6.07-10.81-14.23-10.81-7.62,0-12.6,3.11-12.6,8.87,0,6.3,6.3,8.09,15.01,9.88,11.2,2.25,21.39,5.13,21.39,18.04,0,10.97-9.02,17.11-21.54,17.11ZM382.58,32h-8.63v26.37c0,3.03,1.63,3.89,4.28,3.89,1.24,0,2.88-.31,3.66-.54h.23v6.07c-1.94.47-3.97.7-5.83.7-5.6-.08-9.49-2.33-9.49-8.48v-28h-6.53v-5.6h6.53v-13.14h7.16v13.14h8.63v5.6ZM423.95,68.17h-7.16v-5.83h-.16c-2.96,4.12-6.61,6.77-12.6,6.77-8.63,0-14.16-5.21-14.16-13.92v-28.78h7.23v28.39c0,5.29,3.34,8.4,9.1,8.4,6.38,0,10.5-4.9,10.5-11.36v-25.43h7.23v41.76ZM470.38,68.17h-7.16v-5.99h-.16c-2.64,4.51-7.08,7.23-12.91,7.23-11.28,0-18.43-8.55-18.43-22.01s7.93-22.01,18.28-22.01c5.91,0,10.58,2.96,13.22,7.39h.16c-.16-1.87-.23-4.9-.23-7.7v-14.78h7.23v57.86ZM487.57,68.17h-7.23V26.4h7.23v41.76ZM487.73,18.7h-7.54v-8.4h7.54v8.4ZM515.72,69.33c-12.6,0-20.46-9.8-20.46-22.01s7.86-21.93,20.46-21.93,20.3,9.8,20.3,21.93-7.7,22.01-20.3,22.01Z"/>
      </g>
    </g>
  </g>
</svg>