<?xml version="1.0" encoding="UTF-8"?>
<svg id="Layer_2" data-name="Layer 2" xmlns="http://www.w3.org/2000/svg" viewBox="0 0 280.81 280.81">
  <defs>
    <style>
      .cls-1 {
        fill: #0050fc;
      }

      .cls-2 {
        fill: #fff;
      }
    </style>
  </defs>
  <g id="Layer_1-2" data-name="Layer 1">
    <rect class="cls-1" width="280.81" height="280.81"/>
    <g>
      <path class="cls-2" d="M101.61,105.39v70.04h22.29v-51.61h55.3v-18.43h-77.59Z"/>
      <path class="cls-2" d="M101.61,47.98v43.01h22.29v-24.58h59.51v-18.43h-81.8Z"/>
    </g>
    <g>
      <path class="cls-2" d="M53.71,225.62h5.86c.7,6.49,4.99,10.09,12.81,10.09,5.74,0,9.92-2.55,9.92-7.77,0-5.62-4.99-6.96-12.52-8.64-7.71-1.62-14.26-3.83-14.26-12.12,0-7.25,6.09-11.54,14.96-11.54,10.61,0,15.37,5.33,16.41,12.7h-5.74c-.75-5.22-4.52-8.06-10.61-8.06-5.68,0-9.39,2.32-9.39,6.61,0,4.7,4.7,6.03,11.19,7.36,8.35,1.68,15.95,3.83,15.95,13.45,0,8.18-6.73,12.76-16.06,12.76-12.06,0-18.03-6.61-18.5-14.84Z"/>
      <path class="cls-2" d="M92.67,208.45h4.87v-9.8h5.33v9.8h6.44v4.17h-6.44v19.66c0,2.26,1.22,2.9,3.19,2.9.93,0,2.15-.23,2.73-.41h.17v4.52c-1.45.35-2.96.52-4.35.52-4.17-.06-7.07-1.74-7.07-6.32v-20.87h-4.87v-4.17Z"/>
      <path class="cls-2" d="M134.82,239.59v-4.35h-.12c-2.2,3.07-4.93,5.04-9.39,5.04-6.44,0-10.55-3.88-10.55-10.38v-21.45h5.39v21.16c0,3.94,2.49,6.26,6.78,6.26,4.75,0,7.83-3.65,7.83-8.47v-18.96h5.39v31.14h-5.33Z"/>
      <path class="cls-2" d="M145.96,224.11c0-10.26,5.91-16.41,13.63-16.41,4.41,0,7.89,2.2,9.86,5.51h.12c-.12-1.39-.17-3.65-.17-5.74v-11.02h5.39v43.14h-5.33v-4.46h-.12c-1.97,3.36-5.28,5.39-9.62,5.39-8.41,0-13.74-6.38-13.74-16.41ZM169.67,224.17c0-7.02-3.3-11.94-9.57-11.94-5.74,0-8.64,5.1-8.64,11.94s2.9,11.89,8.64,11.89c6.67,0,9.57-5.04,9.57-11.89Z"/>
      <path class="cls-2" d="M182.08,196.45h5.62v6.26h-5.62v-6.26ZM182.19,208.45h5.39v31.14h-5.39v-31.14Z"/>
      <path class="cls-2" d="M193.33,224.05c0-9.05,5.86-16.35,15.25-16.35s15.13,7.31,15.13,16.35-5.74,16.41-15.13,16.41-15.25-7.31-15.25-16.41ZM218.2,224.05c0-6.73-3.3-12.06-9.68-12.06s-9.68,5.33-9.68,12.06,3.3,12,9.68,12,9.68-5.28,9.68-12Z"/>
    </g>
  </g>
</svg>