<svg xmlns="http://www.w3.org/2000/svg" width="748" height="119" viewBox="0 0 748 119"><path d="M150.043523,20.5318915 L139.719025,18.7486052 L139.719025,10.4105365 L182.937852,10.4105365 L182.937852,18.7486052 L170.020225,20.5318915 L170.020225,101.068959 L198.832776,99.8640357 L207.284458,74.6570421 L218.185206,76.10295 L214.007386,110.660148 L139.4309,110.660148 L139.4309,102.563064 L150.043523,101.21355 L150.043523,20.5318915 Z M236.721281,71.1386663 C246.698659,66.6213727 257.570541,64.4456199 268.511129,64.7766718 L268.511129,61.6920684 C268.623477,58.7712281 268.233607,55.8527944 267.358627,53.0648182 C266.65877,50.9652857 265.155711,49.2313 263.180807,48.2451253 C260.40296,47.0790971 257.400236,46.5521058 254.392979,46.7028236 C250.390598,46.6254587 246.401892,47.1950376 242.579833,48.3897161 C238.843332,49.5795348 235.19978,51.0455195 231.679084,52.7756366 L227.501264,44.1483864 C229.579524,42.4789067 231.853381,41.0707463 234.272214,39.9552537 C237.915621,38.1644895 241.728218,36.7436528 245.653172,35.713924 C250.160547,34.4982756 254.816915,33.9303236 259.483196,34.0270315 C265.007036,33.7676849 270.52284,34.6876172 275.666246,36.7260595 C279.467223,38.4121871 282.476252,41.5012754 284.069906,45.3533096 C285.976312,50.4289804 286.841979,55.8387378 286.615015,61.258296 L286.615015,102.563064 L293.914195,102.563064 L293.914195,110.129981 C291.37727,110.708963 288.812908,111.159371 286.230848,111.479495 C283.3347,111.889441 280.415584,112.114811 277.491041,112.154252 C275.365131,112.398863 273.218717,111.923903 271.392384,110.804738 C270.121125,109.257728 269.547174,107.250266 269.807694,105.262092 L269.807694,101.647322 C267.040571,104.60221 263.792867,107.063213 260.20351,108.925058 C256.220958,111.123444 251.734247,112.236771 247.189841,112.154252 C243.23867,112.205088 239.333912,111.2956 235.808883,109.503421 C232.385762,107.837919 229.504661,105.230411 227.501264,101.984701 C225.358682,98.2718228 224.294093,94.0312458 224.427926,89.7426807 C224.308972,81.5896618 229.191677,74.2004742 236.721281,71.1386663 L236.721281,71.1386663 Z M262.172368,99.2856725 C264.48313,98.2358185 266.620671,96.8380739 268.511129,95.1407367 L268.511129,73.0665435 C262.207007,72.6234932 255.912016,74.04799 250.407242,77.1632824 C246.788665,79.3693394 244.543035,83.2772431 244.452649,87.525622 C244.21367,91.0807078 245.291005,94.5991715 247.477966,97.4059923 C249.604007,99.6933001 252.62434,100.927011 255.737564,100.779777 C257.963424,100.742321 260.156269,100.233161 262.172368,99.2856725 L262.172368,99.2856725 Z M295.931073,2.98820956 L320.565804,0 L320.565804,0 L324.359457,2.55443721 L324.359457,42.3651001 C326.962909,39.823219 329.984733,37.7523685 333.291348,36.2440902 C336.878953,34.5483278 340.803071,33.6914155 344.768347,33.7378499 C352.780542,33.4822218 360.489974,36.8210879 365.80151,42.8470694 C371.211866,48.9198823 373.933052,58.2058239 373.965066,70.704894 C374.078306,78.0113363 372.43086,85.2370583 369.162974,91.7669517 C366.122092,97.9707949 361.393904,103.18418 355.525033,106.804393 C349.142053,110.515954 341.867211,112.399676 334.491871,112.250646 C328.296291,112.334258 322.110923,111.719921 316.051838,110.419163 C312.598266,109.813512 309.250151,108.709616 306.111508,107.141772 L306.111508,11.6154597 L296.027115,9.97676418 L295.931073,2.98820956 Z M330.314051,47.4257776 C328.181516,48.4599495 326.247135,49.8630288 324.599562,51.5707134 L324.599562,100.827974 C325.510854,102.065694 326.844141,102.923498 328.345193,103.237821 C330.523931,103.902022 332.791236,104.22711 335.068122,104.201759 C340.773091,104.213045 346.040997,101.136512 348.850125,96.1528722 C352.768031,88.8611501 354.565117,80.6110139 354.036385,72.3435896 C354.536743,65.3193805 352.984702,58.3012237 349.570439,52.1490766 C347.096867,48.0658609 342.66237,45.5932215 337.901356,45.6424912 C335.266544,45.6192639 332.66463,46.2308058 330.314051,47.4257776 Z M385.057898,102.707654 L393.941768,101.647322 L393.941768,48.6307008 L385.346023,46.2208544 L385.346023,36.7260595 L406.187102,33.8824407 L406.61929,33.8824407 L409.932734,36.5814687 L409.932734,39.5696782 L409.548566,50.4621841 L409.932734,50.4621841 C411.023325,48.0005814 412.534779,45.7495591 414.398679,43.8110079 C416.921662,40.99549 419.890952,38.6178645 423.186507,36.7742564 C426.6949,34.7615532 430.670523,33.7141264 434.711528,33.7378499 C436.443118,33.7077718 438.166369,33.9851556 439.801745,34.5571977 L439.801745,54.7999076 C436.965201,52.8890368 433.613297,51.8965998 430.197561,51.9562888 C424.104543,51.8540033 418.136099,53.6932836 413.150135,57.209754 L413.150135,101.502731 L428.756934,102.707654 L428.756934,110.660148 L385.538107,110.660148 L385.057898,102.707654 Z M459.250217,71.1386663 C469.227595,66.6213727 480.099479,64.4456199 491.040065,64.7766718 L491.040065,61.6920684 C491.152414,58.7712281 490.762544,55.8527944 489.887563,53.0648182 C489.187706,50.9652857 487.684647,49.2313 485.709743,48.2451253 C482.931897,47.0790971 479.929173,46.5521058 476.921915,46.7028236 C472.904029,46.6294346 468.900145,47.1988664 465.060748,48.3897161 C461.343317,49.5892995 457.716429,51.055036 454.208021,52.7756366 L450.030201,44.1483864 C452.108462,42.4789067 454.382317,41.0707463 456.80115,39.9552537 C460.441192,38.1566327 464.254597,36.7354958 468.182108,35.713924 C472.605135,34.4718933 477.179227,33.8554538 481.772028,33.8824407 C487.29587,33.6230941 492.811673,34.5430264 497.955077,36.5814687 C501.756053,38.2675963 504.765084,41.3566846 506.358738,45.2087189 C508.265145,50.2843896 509.13081,55.694147 508.903847,61.1137052 L508.903847,102.418473 L516.203026,102.418473 L516.203026,109.985391 C513.666101,110.564372 511.10174,111.01478 508.519679,111.334905 C505.623534,111.74485 502.704418,111.97022 499.779872,112.009662 C497.653962,112.254272 495.507547,111.779312 493.681216,110.660148 C492.409958,109.113138 491.836008,107.105676 492.096525,105.117501 L492.096525,101.502731 C489.3294,104.457619 486.081697,106.918623 482.492342,108.780467 C478.507346,110.972568 474.022324,112.085475 469.478673,112.009662 C465.5275,112.060497 461.622743,111.151009 458.097715,109.358831 C454.781695,107.695628 451.989342,105.14327 450.030201,101.984701 C447.887619,98.2718228 446.823028,94.0312458 446.956862,89.7426807 C446.83791,81.5896618 451.720613,74.2004742 459.250217,71.1386663 Z M484.701304,99.2856725 C487.012066,98.2358185 489.149606,96.8380739 491.040065,95.1407367 L491.040065,73.0665435 C484.735943,72.6234932 478.440953,74.04799 472.936179,77.1632824 C469.245679,79.4145288 466.989492,83.4321107 466.981585,87.7666067 C466.742605,91.3216924 467.819942,94.8401562 470.006903,97.646977 C472.132945,99.9342847 475.153277,101.167996 478.266501,101.020762 C480.509942,100.908094 482.703654,100.316578 484.701304,99.2856725 L484.701304,99.2856725 Z M537.668377,108.153907 C533.018131,105.195764 529.368666,100.894446 527.199817,95.8154937 C524.404751,89.2093668 523.077397,82.0713194 523.310122,74.8980268 C523.283187,67.7089854 524.927447,60.6127444 528.112214,54.1733475 C531.137084,48.0549857 535.812384,42.9116773 541.606092,39.3286936 C548.14803,35.481853 555.636788,33.5610441 563.215506,33.7860468 C566.448754,33.7830299 569.671526,34.1550067 572.819689,34.8945762 L572.819689,12.0010352 L559.661958,10.121355 L559.661958,2.69902799 L587.322007,0 L587.754195,0 L591.499827,2.84361878 L591.499827,102.418473 L598.750985,102.418473 L598.750985,110.129981 C593.50085,111.335945 588.144085,112.01405 582.760019,112.154252 C580.632261,112.329373 578.502489,111.841264 576.661363,110.756542 C575.249436,109.241808 574.580885,107.175837 574.836568,105.117501 L574.836568,101.35814 C572.295229,104.674148 569.002815,107.334258 565.232384,109.117846 C561.273196,111.128241 556.895841,112.168782 552.45882,112.154252 C547.259351,112.184676 542.148577,110.802374 537.668377,108.153907 Z M567.489367,99.1410818 C569.576713,98.065009 571.423201,96.5725622 572.915731,94.7551613 L572.915731,45.6424912 C571.864153,44.4679329 570.468797,43.65802 568.929995,43.3290387 C566.829792,42.6817165 564.64416,42.3567331 562.447171,42.3651001 C556.859833,42.2823476 551.634729,45.1328826 548.665167,49.8838209 C544.616051,57.231178 542.812278,65.6125937 543.478908,73.9822851 C542.996346,81.0763818 544.528257,88.1623733 547.896833,94.4177828 C550.345339,98.5754531 554.801937,101.123558 559.613937,101.11718 C562.360277,101.112249 565.063827,100.433884 567.489367,99.1410818 L567.489367,99.1410818 Z M613.733512,51.7153042 C616.848225,46.0229132 621.533686,41.3537522 627.22739,38.2683612 C632.899641,35.2336423 639.239903,33.6752609 645.667423,33.7378499 C655.485115,33.1320138 665.061227,36.9482308 671.790802,44.1483864 C678.28666,52.143166 681.574672,62.2839769 681.010819,72.5845742 C681.240643,80.1622154 679.503038,87.6695862 675.968622,94.3695858 C672.899341,100.055359 668.220503,104.701026 662.522765,107.720135 C656.811821,110.682029 650.462547,112.188266 644.034711,112.106056 C634.226899,112.678182 624.672989,108.846141 617.959353,101.647322 C611.432754,93.6857726 608.124833,83.5536188 608.691315,73.2593312 C608.470111,65.7594188 610.208436,58.331993 613.733512,51.7153042 L613.733512,51.7153042 Z M660.313803,73.9822851 C660.710824,66.0057939 659.468543,58.032611 656.664213,50.5585779 C654.865922,45.6010764 650.105448,42.3575267 644.851067,42.5096909 C634.446535,42.5096909 629.244269,52.3257986 629.244269,71.9580141 C628.850825,79.9355701 630.160636,87.9053973 633.085942,95.3335244 C635.032258,100.281558 639.840064,103.492104 645.139193,103.382411 C655.255599,103.382411 660.313803,93.5823693 660.313803,73.9822851 Z M693.256153,102.707654 L702.140023,101.647322 L702.140023,48.6307008 L693.544278,46.2208544 L693.544278,36.7260595 L714.385357,33.8824407 L714.769524,33.8824407 L718.130989,36.5814687 L718.130989,39.5696782 L717.746821,50.4621841 L718.130989,50.4621841 C719.20005,48.0002958 720.695878,45.7483301 722.548913,43.8110079 C725.089968,40.9951626 728.075072,38.6178633 731.384762,36.7742564 C734.875563,34.7612262 738.835872,33.713469 742.861762,33.7378499 C744.609007,33.7081263 746.347968,33.9854221 748,34.5571977 L748,54.7999076 C745.162136,52.8918615 741.811132,51.899692 738.395816,51.9562888 C732.299493,51.8304193 726.323906,53.6719035 721.34839,57.209754 L721.34839,101.502731 L736.955189,102.707654 L736.955189,110.660148 L693.736362,110.660148 L693.256153,102.707654 Z M32.0081052,118.998216 C31.3286338,118.995057 30.6575658,118.84721 30.0392475,118.564444 C28.8697263,118.038734 27.9580693,117.065674 27.507131,115.861782 C27.0561928,114.65789 27.103383,113.32304 27.6382016,112.154252 C29.751122,107.33456 31.7680006,102.948639 33.7368582,98.273537 C35.7057159,93.598435 37.9146781,88.6341514 40.1236404,83.8144585 C43.0529164,77.404267 48.1911547,68.2468506 57.3151292,65.0658534 C63.4238554,63.0497951 69.7376578,61.7242093 76.1393293,61.1137052 C82.3820487,60.2461605 85.3593456,59.4268127 87.0880987,55.4264677 C89.7430796,48.9885851 90.3469803,41.8835786 88.8168517,35.0873639 L88.8168517,35.0873639 L75.3709946,35.0873639 C65.1773629,35.7886554 55.4735746,30.6105337 50.352096,21.7368147 C48.7496448,19.4451272 46.4363335,17.75039 43.7732302,16.9171219 C38.1638623,15.5624293 32.3944623,14.9947286 26.6297623,15.2302294 C17.8419342,15.6158048 12.2234867,20.5318915 9.58233621,30.8460342 C8.87952382,33.4546401 6.20281149,34.9975028 3.6037319,34.2921144 C1.00465227,33.5867261 -0.532576086,30.900203 0.170236187,28.291597 C4.97232804,10.2177488 16.9775577,6.02461605 26.1015322,5.68723755 C32.7219789,5.30303004 39.3635761,5.8382515 45.8381297,7.27773619 C50.936124,8.7504768 55.3451751,11.996771 58.2755476,16.4351526 C61.5956951,22.5101198 68.2145075,26.0024779 75.082869,25.3033874 L88.9609145,25.3033874 C93.6137813,25.1542456 97.5838363,28.6539527 98.0368681,33.3040775 C99.9710538,42.009859 99.1656782,51.1035418 95.731864,59.3304189 C91.6500859,68.9698046 83.1984043,69.9337431 77.5799568,70.704894 C71.7432591,71.2752103 65.981654,72.4543686 60.388468,74.2232698 C55.8745016,75.9101623 52.2249118,80.103295 48.6713639,87.9111974 C46.5104225,92.7308903 44.445523,97.5505831 42.3806235,102.370276 C40.3157241,107.189969 38.586971,111.624086 36.3780087,116.443779 C35.5222404,118.058437 33.8296454,119.047848 32.0081052,118.998216 Z"/></svg>